<svg width="25" height="25" viewBox="0 0 25 25" fill="none" xmlns="http://www.w3.org/2000/svg">
<path fill-rule="evenodd" clip-rule="evenodd" d="M12.5 21.875C13.7311 21.875 14.9502 21.6325 16.0877 21.1614C17.2251 20.6902 18.2586 19.9997 19.1291 19.1291C19.9997 18.2586 20.6902 17.2251 21.1614 16.0877C21.6325 14.9502 21.875 13.7311 21.875 12.5C21.875 11.2689 21.6325 10.0498 21.1614 8.91234C20.6902 7.77492 19.9997 6.74142 19.1291 5.87087C18.2586 5.00032 17.2251 4.30977 16.0877 3.83863C14.9502 3.36749 13.7311 3.125 12.5 3.125C10.0136 3.125 7.62903 4.11272 5.87087 5.87087C4.11272 7.62903 3.125 10.0136 3.125 12.5C3.125 14.9864 4.11272 17.371 5.87087 19.1291C7.62903 20.8873 10.0136 21.875 12.5 21.875ZM12.5833 5.27917C12.5 5.35625 12.5 5.47917 12.5 5.72917V12.199C12.5 12.3458 12.5 12.4198 12.4646 12.4802C12.4302 12.5406 12.3667 12.5771 12.2396 12.65L6.63542 15.8854C6.42083 16.0104 6.3125 16.0729 6.2875 16.1823C6.2625 16.2927 6.32917 16.3906 6.46146 16.5875C7.15419 17.6109 8.09565 18.4414 9.19743 19.0011C10.2992 19.5608 11.5252 19.8313 12.7602 19.7871C13.9952 19.743 15.1987 19.3857 16.2577 18.7488C17.3168 18.1119 18.1965 17.2163 18.8145 16.1461C19.4324 15.0759 19.7682 13.8662 19.7903 12.6306C19.8124 11.395 19.5201 10.1741 18.9409 9.08246C18.3617 7.99082 17.5145 7.0643 16.479 6.38991C15.4434 5.71552 14.2535 5.31539 13.0208 5.22708C12.7844 5.21042 12.6667 5.20208 12.5833 5.27917Z" fill="#17A3D0"/>
</svg>
