<svg width="25" height="25" viewBox="0 0 25 25" fill="none" xmlns="http://www.w3.org/2000/svg">
<path d="M14.0625 17.5781C14.0625 17.8872 13.9709 18.1893 13.7992 18.4462C13.6275 18.7032 13.3835 18.9034 13.0979 19.0217C12.8124 19.1399 12.4983 19.1709 12.1952 19.1106C11.8921 19.0503 11.6137 18.9015 11.3952 18.683C11.1766 18.4645 11.0278 18.1861 10.9675 17.883C10.9072 17.5799 10.9382 17.2657 11.0564 16.9802C11.1747 16.6947 11.375 16.4506 11.6319 16.279C11.8889 16.1073 12.191 16.0156 12.5 16.0156C12.9144 16.0156 13.3118 16.1802 13.6049 16.4733C13.8979 16.7663 14.0625 17.1637 14.0625 17.5781ZM23.0469 12.5C23.0469 14.586 22.4283 16.6251 21.2694 18.3595C20.1105 20.094 18.4633 21.4458 16.5361 22.244C14.6089 23.0423 12.4883 23.2512 10.4424 22.8442C8.39652 22.4373 6.51725 21.4328 5.04224 19.9578C3.56723 18.4828 2.56274 16.6035 2.15578 14.5576C1.74883 12.5117 1.95769 10.3911 2.75596 8.46389C3.55423 6.5367 4.90605 4.8895 6.64048 3.73059C8.3749 2.57169 10.414 1.95313 12.5 1.95312C15.2963 1.95623 17.9771 3.06841 19.9543 5.04566C21.9316 7.02291 23.0438 9.70375 23.0469 12.5ZM20.7031 12.5C20.7031 10.8776 20.222 9.29159 19.3207 7.94259C18.4193 6.59359 17.1381 5.54218 15.6392 4.9213C14.1403 4.30043 12.4909 4.13798 10.8997 4.4545C9.3084 4.77102 7.84675 5.55229 6.69952 6.69951C5.55229 7.84674 4.77102 9.3084 4.4545 10.8997C4.13798 12.4909 4.30043 14.1403 4.92131 15.6392C5.54218 17.1381 6.5936 18.4193 7.94259 19.3207C9.29159 20.222 10.8776 20.7031 12.5 20.7031C14.6749 20.7008 16.76 19.8358 18.2979 18.2979C19.8358 16.76 20.7008 14.6749 20.7031 12.5ZM12.5 6.25C10.1309 6.25 8.20313 8.00195 8.20313 10.1563V10.5469C8.20313 10.8577 8.32659 11.1557 8.54636 11.3755C8.76613 11.5953 9.0642 11.7188 9.37501 11.7188C9.68581 11.7188 9.98388 11.5953 10.2036 11.3755C10.4234 11.1557 10.5469 10.8577 10.5469 10.5469V10.1563C10.5469 9.29492 11.4258 8.59375 12.5 8.59375C13.5742 8.59375 14.4531 9.29492 14.4531 10.1563C14.4531 11.0176 13.5742 11.7188 12.5 11.7188C12.1892 11.7188 11.8911 11.8422 11.6714 12.062C11.4516 12.2818 11.3281 12.5798 11.3281 12.8906V13.6719C11.3274 13.9614 11.4339 14.2409 11.6271 14.4566C11.8203 14.6722 12.0865 14.8088 12.3743 14.8398C12.6622 14.8709 12.9513 14.7943 13.186 14.6248C13.4208 14.4553 13.5844 14.2049 13.6455 13.9219C15.46 13.4648 16.7969 11.9502 16.7969 10.1563C16.7969 8.00195 14.8691 6.25 12.5 6.25Z" fill="#17A3D0"/>
</svg>
